<svg xmlns="http://www.w3.org/2000/svg" viewBox="0 0 246.97 30.44">
  <path d="m25.52,0c-6.81,0-11.06,3.38-12.76,10.15,2.55-3.38,5.53-4.65,8.93-3.81,1.94.48,3.33,1.88,4.86,3.43,2.5,2.52,5.4,5.45,11.72,5.45,6.8,0,11.06-3.38,12.76-10.15-2.55,3.38-5.53,4.65-8.93,3.8-1.94-.48-3.33-1.88-4.87-3.43-2.5-2.53-5.4-5.45-11.72-5.45Zm-12.76,15.22c-6.8,0-11.06,3.38-12.76,10.15,2.55-3.38,5.53-4.65,8.93-3.81,1.94.48,3.33,1.88,4.86,3.43,2.5,2.52,5.4,5.44,11.72,5.44,6.8,0,11.06-3.38,12.76-10.15-2.55,3.38-5.53,4.65-8.93,3.81-1.94-.48-3.33-1.88-4.86-3.43-2.5-2.52-5.4-5.45-11.72-5.45Z" fill="#38bdf8" fill-rule="evenodd"/>
  <path d="m76.55,12.82h-4.45v8.57c0,2.28,1.51,2.25,4.45,2.11v3.46c-5.96.71-8.33-.93-8.33-5.57v-8.57h-3.3v-3.71h3.3v-4.79l3.88-1.14v5.94h4.45s0,3.71,0,3.71Zm16.97-3.71h3.88v17.85h-3.88v-2.57c-1.36,1.89-3.48,3.03-6.28,3.03-4.88,0-8.94-4.1-8.94-9.39s4.06-9.39,8.94-9.39c2.8,0,4.92,1.14,6.29,3,0,0,0-2.54,0-2.54Zm-5.67,14.64c3.23,0,5.67-2.39,5.67-5.71s-2.44-5.71-5.67-5.71-5.67,2.39-5.67,5.71,2.44,5.71,5.67,5.71Zm16.02-17.31c-1.36,0-2.48-1.14-2.48-2.46,0-1.36,1.11-2.46,2.48-2.46,1.36,0,2.47,1.1,2.48,2.46,0,1.32-1.11,2.46-2.48,2.46Zm-1.94,20.53V9.11h3.88v17.85s-3.88,0-3.88,0Zm8.37,0V.9h3.88v26.06h-3.88Zm29.05-17.85h4.09l-5.64,17.85h-3.81l-3.74-12.03-3.77,12.03h-3.81l-5.64-17.85h4.09l3.48,12.31,3.77-12.31h3.7l3.73,12.31s3.52-12.31,3.52-12.31Zm8.91-2.68c-1.37,0-2.48-1.14-2.48-2.46,0-1.36,1.11-2.46,2.48-2.46,1.36,0,2.47,1.1,2.48,2.46,0,1.32-1.11,2.46-2.48,2.46Zm-1.94,20.53V9.11h3.88v17.85s-3.88,0-3.88,0Zm17.81-18.31c4.02,0,6.9,2.71,6.9,7.35v10.96h-3.88v-10.57c0-2.71-1.58-4.14-4.02-4.14s-4.56,1.5-4.56,5.14v9.57h-3.88V9.11h3.88v2.28c1.18-1.86,3.12-2.75,5.57-2.75h0Zm25.28-6.68h3.88v24.99h-3.88v-2.57c-1.36,1.89-3.48,3.03-6.28,3.03-4.88,0-8.94-4.1-8.94-9.39s4.06-9.39,8.94-9.39c2.8,0,4.92,1.14,6.28,3V1.97Zm-5.67,21.77c3.23,0,5.67-2.39,5.67-5.71s-2.44-5.71-5.67-5.71-5.67,2.39-5.67,5.71,2.44,5.71,5.67,5.71Zm22.55,3.68c-5.42,0-9.48-4.1-9.48-9.39s4.06-9.39,9.48-9.39c3.52,0,6.57,1.82,8.01,4.61l-3.34,1.93c-.79-1.68-2.55-2.75-4.7-2.75-3.16,0-5.57,2.39-5.57,5.6s2.41,5.6,5.57,5.6c2.15,0,3.91-1.11,4.78-2.75l3.34,1.89c-1.51,2.82-4.56,4.64-8.08,4.64h0Zm14.47-13.39c0,3.25,9.66,1.28,9.66,7.89,0,3.57-3.12,5.5-7,5.5-3.59,0-6.18-1.61-7.33-4.18l3.34-1.93c.57,1.61,2.01,2.57,3.99,2.57,1.72,0,3.05-.57,3.05-2,0-3.18-9.66-1.39-9.66-7.78,0-3.36,2.91-5.46,6.57-5.46,2.95,0,5.39,1.36,6.64,3.71l-3.27,1.82c-.65-1.39-1.9-2.03-3.38-2.03s-2.62.61-2.62,1.89h0Zm16.56,0c0,3.25,9.66,1.28,9.66,7.89,0,3.57-3.12,5.5-7,5.5-3.59,0-6.18-1.61-7.33-4.18l3.34-1.93c.57,1.61,2.01,2.57,3.99,2.57,1.72,0,3.05-.57,3.05-2,0-3.18-9.66-1.39-9.66-7.78,0-3.36,2.91-5.46,6.57-5.46,2.94,0,5.39,1.36,6.64,3.71l-3.27,1.82c-.65-1.39-1.9-2.03-3.38-2.03s-2.62.61-2.62,1.89h0Z" fill-rule="evenodd"/>
</svg>